<?xml version="1.0" encoding="UTF-8" standalone="no"?>
<!-- Created with Inkscape (http://www.inkscape.org/) -->

<svg
   version="1.1"
   id="svg1"
   width="2816"
   height="1536"
   viewBox="0 0 2816 1536"
   sodipodi:docname="asm-logo.jpeg"
   inkscape:export-filename="asm-logo2.svg"
   inkscape:export-xdpi="96"
   inkscape:export-ydpi="96"
   xmlns:inkscape="http://www.inkscape.org/namespaces/inkscape"
   xmlns:sodipodi="http://sodipodi.sourceforge.net/DTD/sodipodi-0.dtd"
   xmlns="http://www.w3.org/2000/svg"
   xmlns:svg="http://www.w3.org/2000/svg">
  <defs
     id="defs1">
    <inkscape:path-effect
       effect="fillet_chamfer"
       id="path-effect4"
       is_visible="true"
       lpeversion="1"
       nodesatellites_param="F,0,0,1,0,400.00003,0,1 @ F,0,0,1,0,400.83334,0,1 @ F,0,0,1,0,375.00003,0,1 @ F,0,0,1,0,417.5,0,1"
       radius="0"
       unit="px"
       method="auto"
       mode="F"
       chamfer_steps="1"
       flexible="false"
       use_knot_distance="true"
       apply_no_radius="true"
       apply_with_radius="true"
       only_selected="false"
       hide_knots="false" />
  </defs>
  <sodipodi:namedview
     id="namedview1"
     pagecolor="#ffffff"
     bordercolor="#000000"
     borderopacity="0.25"
     inkscape:showpageshadow="2"
     inkscape:pageopacity="0.0"
     inkscape:pagecheckerboard="0"
     inkscape:deskcolor="#d1d1d1">
    <inkscape:page
       x="0"
       y="0"
       width="2816"
       height="1536"
       id="page2"
       margin="0"
       bleed="0" />
  </sodipodi:namedview>
  <g
     inkscape:groupmode="layer"
     inkscape:label="Image"
     id="g1">
    <path
       style="fill:#000000"
       d="m 1587.1886,1261.158 c -12.8349,-14.5727 -12.0507,-13.6626 -27.301,-31.6866 -19.163,-22.6483 -21.681,-25.5905 -25.7175,-30.0496 -2.0462,-2.2604 -6.0962,-7.0485 -9,-10.6402 -2.9038,-3.5917 -10.2296,-12.1472 -16.2796,-19.0121 -6.05,-6.865 -15.5875,-17.8405 -21.1944,-24.39 -5.6069,-6.5495 -11.233,-13.0331 -12.5024,-14.4081 -1.2694,-1.375 -3.5941,-4.075 -5.166,-6 -1.5718,-1.925 -4.7328,-5.525 -7.0242,-8 -2.2915,-2.475 -5.896,-6.6375 -8.0101,-9.25 l -3.8438,-4.75 h -91.9453 c -54.2168,0 -92.6364,-0.3783 -93.6295,-0.9219 -0.9264,-0.507 -21.0343,-20.3168 -44.6843,-44.0217 l -43,-43.0998 -0.5,-28.72823 -0.5,-28.72838 -91.1222,-0.25524 -91.12213,-0.25524 -47.4383,-47.24476 c -26.091,-25.98462 -48.3052,-48.29801 -49.3647,-49.58531 -1.865,-2.26579 -1.9325,-5.03859 -2.1131,-86.81999 l -0.1866,-84.47946 8.7504,-10.18 c 4.8127,-5.599 14.2918,-16.255 21.0646,-23.68 6.7729,-7.425 13.4438,-14.90674 14.8244,-16.62608 l 2.51,-3.12607 -0.1614,-51.0648 -0.1613,-51.0648 18.1164,-19.80913 c 9.964,-10.89502 28.081,-30.83081 40.26013,-44.30176 12.1791,-13.47095 27.5516,-30.34595 34.1612,-37.5 13.408,-14.51256 30.1087,-32.90736 60.3183,-66.43686 11.1846,-12.41378 21.0433,-22.9702 21.9082,-23.45871 0.8648,-0.48852 16.0138,-1.10335 33.6643,-1.36629 17.6505,-0.26295 32.6461,-0.77654 33.3235,-1.14132 0.6775,-0.36478 8.0731,-7.84995 16.4346,-16.63371 8.3616,-8.78376 23.4901,-24.63297 33.619,-35.22047 l 18.416,-19.25 h 72.1148 72.1148 l 33.1645,33.11014 c 18.2405,18.21057 33.331,32.6219 33.5346,32.02516 0.2035,-0.59674 14.7424,-15.4963 32.3087,-33.11014 l 31.9387,-32.02516 71.5613,0.0147 c 54.9157,0.0113 72.0735,0.30207 73.7632,1.25 1.211,0.67939 11.5566,11.36026 22.9903,23.73526 11.4336,12.375 26.1928,28.02962 32.7981,34.78804 l 12.0097,12.28804 32.6672,0.003 c 37.9208,0.003 32.9792,-1.42611 46.1551,13.35207 29.9973,33.64508 105.5949,117.20261 145.1239,160.4044 l 16.7767,18.33547 -0.1245,50.75729 -0.1245,50.75728 3.263,4.01493 c 3.036,3.73547 25.4098,29.36429 38.7157,44.34812 l 5.8152,6.54858 0.01,84.43249 0.01,84.43249 -8.1438,8.3729 c -4.479,4.6051 -26.0114,26.43862 -47.8497,48.51894 l -39.7061,40.14603 -0.044,40.00515 -0.044,40.00513 -55.6812,55.7449 -55.6812,55.7449 -8.5688,0.098 c -4.7128,0.054 -32.8688,0.1665 -62.5688,0.25 l -54,0.1519 -0.035,61.6386 c -0.028,49.8945 -0.2895,61.945 -1.3701,63.2471 -1.1943,1.4391 -6.4282,1.6023 -49.6693,1.5481 l -48.3344,-0.06 z m 62.6524,-82.6823 -0.05,-46.4944 -26.9504,-30.7269 c -23.5104,-26.8046 -36.3695,-41.2964 -50.3859,-56.783 -1.9911,-2.2 -6.4202,-7.2741 -9.8424,-11.2757 l -6.2222,-7.2757 v -35.41523 c 0,-22.2282 -0.3676,-35.64256 -0.9873,-36.02554 -1.0039,-0.62044 -68.116,-0.73789 -68.7336,-0.12029 -0.1855,0.18549 -0.3257,26.76723 -0.3117,59.07046 l 0.026,58.7332 3.2535,3.7923 c 16.5768,19.3224 41.7499,48.4505 53.2203,61.5818 7.7183,8.836 17.6332,20.2643 22.0332,25.3963 4.4,5.132 11.825,13.6749 16.5,18.9843 15.1571,17.214 30.4332,35.1764 33.3048,39.1616 l 2.8048,3.8925 16.1952,-6e-4 16.1952,-6e-4 z m 194.2511,-121.2543 42.1616,-41.75 -0.267,-31.64033 -0.2671,-31.64041 -25.6645,-25.27126 c -14.1155,-13.89919 -25.6646,-25.75591 -25.6646,-26.34826 0,-1.36878 31.1278,-32.59975 32.492,-32.59975 0.5585,0 10.6053,9.64515 22.3261,21.43368 l 21.3106,21.43368 17.33,-17.68368 c 9.5314,-9.72603 25.7216,-26.00526 35.9782,-36.17608 l 18.6482,-18.4924 -0.1766,-65.63668 -0.1765,-65.63668 -12.4479,-14.37092 c -6.8463,-7.90401 -14.6401,-17.10458 -17.3195,-20.44571 l -4.8718,-6.07479 -7.2964,0.8376 c -4.013,0.46068 -17.4214,2.23661 -29.7964,3.94653 -32.645,4.51072 -43.4005,5.70481 -44.2747,4.91548 -0.4261,-0.38471 -2.0291,-10.72649 -3.5623,-22.98171 l -2.7876,-22.28224 2.0623,-0.86493 c 1.9145,-0.80295 27.1487,-4.40347 48.0623,-6.85773 4.95,-0.58089 12.4875,-1.58888 16.75,-2.23997 l 7.75,-1.18381 -0.01,-33.56982 c -0.01,-39.15475 1.9086,-32.85653 -15.9934,-52.56526 -6.875,-7.56885 -17.45,-19.27097 -23.5,-26.00472 -6.05,-6.73375 -16.4,-18.20513 -23,-25.49196 -6.6,-7.28682 -14.7,-16.29127 -18,-20.00988 -8.5779,-9.66604 -32.6613,-36.21862 -34.4721,-38.00648 -1.884,-1.86007 -8.9934,-9.69138 -19.5279,-21.51087 -4.4,-4.9367 -9.2029,-10.21441 -10.6731,-11.72824 l -2.673,-2.75241 h -23.4662 c -26.6757,0 -23.7131,-0.90512 -32.732,10 -2.9566,3.575 -7.1937,8.54493 -9.4157,11.04429 -5.5875,6.28492 -9.2135,10.50537 -15.0155,17.47712 -2.7365,3.28822 -6.8768,7.9966 -9.2005,10.46306 l -4.2251,4.48447 -2.7994,-2.56647 c -1.5397,-1.41156 -9.212,-8.30619 -17.0495,-15.3214 -7.8375,-7.01521 -14.25,-13.12383 -14.25,-13.57473 0,-0.45089 3.4875,-4.80335 7.75,-9.67214 24.3511,-27.81467 31.4237,-36.34664 31.0264,-37.42812 -0.3026,-0.82373 -24.4745,-26.51536 -37.3102,-39.65608 l -8.0586,-8.25 h -51.9599 -51.96 l -30.4938,30.50517 -30.4939,30.50518 -0.5,40.24482 c -0.275,22.13466 -0.3811,69.60733 -0.2358,105.49483 l 0.2643,65.25 h 35.4857 35.4858 v -53.85787 -53.85786 l -5.9156,-3.65129 c -26.3743,-16.2792 -31.8804,-54.19717 -11.1603,-76.85692 36.9266,-40.38338 102.088,-6.08331 88.4893,46.57959 -3.0642,11.86668 -15.4831,27.68179 -25.1528,32.03152 l -4.1954,1.88716 -0.048,53.84437 -0.048,53.84436 23.2656,0.26847 23.2655,0.26847 0.016,30.68318 c 0.01,16.87575 0.3448,31.01142 0.746,31.41261 0.4012,0.40119 26.9437,0.78381 58.9835,0.85026 l 58.254,0.12081 8.25,-8.27909 8.25,-8.27909 v -15.98402 -15.98401 l -4.25,-2.16403 c -18.4872,-9.41335 -30.3311,-35.42957 -25.2284,-55.41652 13.4055,-52.50857 85.6495,-54.10145 101.149,-2.23019 6.4466,21.57457 -5.8617,48.12925 -27.4206,59.15875 l -3.25,1.6627 v 23.65433 23.65433 l -20.7566,20.81999 -20.7565,20.81999 h -67.2131 -67.213 l 0.07,29 0.07,29 78.6494,-0.008 78.6493,-0.008 2.2989,-4.0254 c 26.3674,-46.16939 98.3147,-28.94881 98.1863,23.50091 -0.1298,53.06138 -66.168,72.27412 -95.6665,27.83264 l -3.5132,-5.29274 h -79.3626 -79.3627 l 0.088,28.5131 c 0.087,28.20132 0.1112,28.51854 2.2099,29.01077 1.1671,0.27371 19.079,0.3244 39.8042,0.11263 20.7253,-0.21176 38.8938,-0.15346 40.3743,0.12957 1.7801,0.34028 9.4058,7.09804 22.5109,19.94866 l 19.8189,19.43405 0.083,28.0633 c 0.093,31.38964 -0.2941,29.07141 5.3291,31.94013 37.7881,19.27806 31.661,81.65669 -9.2984,94.66429 -57.8085,18.3584 -94.4745,-61.62543 -42.8558,-93.48638 l 5.9063,-3.64556 -0.081,-20.59228 -0.081,-20.59228 -7.5957,-7.26295 -7.5957,-7.26295 -34.0991,0.26295 -34.099,0.26295 -0.2507,30.34658 c -0.1378,16.69061 -0.5121,30.76959 -0.8316,31.28662 -0.3383,0.5473 -9.5802,0.87766 -22.1207,0.79072 -17.2163,-0.11935 -21.7129,0.12419 -22.403,1.21338 -0.4749,0.74948 -0.8703,12.55817 -0.8787,26.24157 l -0.015,24.87873 3.6451,4.1212 c 2.0047,2.2666 6.6321,7.2712 10.283,11.1212 3.651,3.85 12.2482,13.2932 19.105,20.985 6.8568,7.6917 18.7669,20.9696 26.4669,29.5064 7.7,8.5367 16.1922,18.106 18.8715,21.2649 l 4.8715,5.7437 h 59.6485 59.6485 z m -405.2016,-52.4994 v -50.74924 l -79.191,-6.9e-4 c -53.4768,-4.6e-4 -79.3986,-0.33661 -79.8303,-1.03521 -0.3517,-0.569 -0.6009,-16.769 -0.5539,-36 0.047,-19.23101 -0.2543,-34.97822 -0.6696,-34.99379 -0.4154,-0.0156 -12.7927,12.23802 -27.5052,27.23021 l -26.75,27.25852 v 29.40163 29.40164 l 30.75,30.37013 30.75,30.3702 76.5,-0.252 76.5,-0.252 z m 323.3123,5.9923 c 11.9089,-7.881 10.2929,-27.87693 -2.7876,-34.49283 -19.2612,-9.74214 -38.5743,13.1257 -25.9996,30.78513 5.2775,7.4116 20.2719,9.3428 28.7872,3.7077 z m -529.4978,-148.42638 46.6855,-46.68346 v -11.81654 -11.81653 l -14.75,-0.10929 c -8.1125,-0.0601 -18.125,-0.0946 -22.25,-0.0766 -4.125,0.018 -33.1826,0.0672 -64.5724,0.10929 l -57.0723,0.0766 -2.6777,4.08974 c -1.4727,2.24936 -2.6776,4.43086 -2.6776,4.84778 0,0.41692 -2.5875,3.20823 -5.75,6.20291 -43.1285,40.83992 -108.7255,-8.00652 -81.4353,-60.64043 18.1283,-34.96378 67.2347,-36.69102 89.0981,-3.13389 l 4.3221,6.63389 h 78.9076 78.9076 l -0.08,-29 -0.081,-29 h -41.0197 -41.0198 l -29.9248,-30.05896 -29.9248,-30.05896 v -14.69104 -14.69104 l -5.4258,-2.83498 c -44.2267,-23.10853 -27.5791,-92.75077 22.816,-95.44719 52.7739,-2.8237 74.9279,65.89956 30.3645,94.19293 l -5.75,3.65069 0.1036,7.71928 0.1037,7.71927 17.1463,16.59135 17.1465,16.59136 32.5,-0.0914 32.5,-0.0914 0.264,-31.73126 0.2641,-31.73127 22.7359,-0.26873 22.736,-0.26874 0.068,-37.82246 0.068,-37.82246 -4.048,-2.06512 c -35.4278,-18.07394 -34.8853,-71.90084 0.9117,-90.45291 58.7859,-30.4662 105.7408,54.65972 49.673,90.05372 l -4.173,2.63432 v 37.97687 37.97687 l 34.5707,-0.22408 c 19.0139,-0.12324 35.0708,-0.53316 35.682,-0.91094 0.8033,-0.49644 1.1208,-29.5469 1.1455,-104.7931 l 0.034,-104.10626 -30.9602,-30.97223 -30.9601,-30.97222 h -52.11 -52.11 l -2.3961,2.29111 c -2.4947,2.38552 -30.0033,31.41918 -38.195,40.31259 -5.8333,6.33303 -6.1335,4.86601 3.2154,15.71213 24.6452,28.59184 31.0836,36.22159 31.0836,36.83523 0,1.35116 -7.7502,8.73012 -20.7519,19.75785 l -13.252,11.23995 -2.395,-2.82443 c -3.7055,-4.36988 -6.4332,-7.46916 -10.4292,-11.84994 -2.0195,-2.21404 -5.6876,-6.48904 -8.1512,-9.5 -2.4636,-3.01097 -9.1351,-10.76199 -14.8256,-17.22449 l -10.3462,-11.75 h -24.3356 -24.3356 l -2.7214,3.25 c -6.7509,8.0621 -20.1202,23.11614 -34.949,39.35304 -4.2065,4.60599 -21.1337,23.09793 -26.0073,28.41158 -3.3,3.59789 -13.2,14.62291 -22,24.50004 -8.8,9.87713 -18.5034,20.66447 -21.563,23.97188 -3.0597,3.3074 -9.316,10.28846 -13.9031,15.51346 -4.587,5.225 -10.4156,11.75 -12.9525,14.5 -2.5369,2.75 -6.51813,7.20085 -8.84703,9.89079 l -4.2344,4.89079 v 33.30019 c 0,22.13924 0.3512,33.51729 1.048,33.94792 0.5764,0.35626 16.70243,2.78547 35.83543,5.39826 19.133,2.61279 35.3114,5.07443 35.9519,5.47031 1.5283,0.94452 1.4628,5.97116 -0.2292,17.60174 -0.7602,5.225 -1.9456,13.92629 -2.6342,19.33619 l -1.2521,9.8362 -4.9438,-0.60214 c -2.7191,-0.33118 -7.9436,-1.051 -11.6099,-1.5996 -3.6664,-0.5486 -13.1911,-1.87057 -21.1661,-2.9377 -24.05793,-3.21917 -37.33703,-5.03596 -40.50003,-5.54103 -2.569,-0.41021 -3.3872,0.0588 -5.6947,3.26452 -1.482,2.05896 -6.1411,7.56856 -10.3536,12.24356 -4.2125,4.675 -10.7749,12.16984 -14.5831,16.65519 l -6.9241,8.1552 0.041,66.20786 0.041,66.20787 34.7365,34.87061 34.73663,34.87061 86.5644,0.0163 86.5645,0.0163 z m 187.2629,-38.85665 c 28.5574,-28.89707 52.0372,-52.67416 52.1772,-52.83797 0.5938,-0.69455 -103.87,-105.62191 -105.1552,-105.62191 -0.5296,0 -6.7992,5.88165 -13.9323,13.07034 l -12.9694,13.07034 38.9012,38.94282 c 21.3956,21.41854 39.0665,39.43304 39.2686,40.0322 0.2022,0.59916 -17.0647,18.54277 -38.3707,39.87468 -21.306,21.33191 -38.5714,39.27072 -38.3675,39.86402 0.4846,1.41015 24.9204,26.1456 25.8289,26.1456 0.3831,0 24.0617,-23.64306 52.6192,-52.54012 z m 164.4226,35.04012 v -16.5 h -57.5 -57.5 v 16.5 16.5 h 57.5 57.5 z m -500.4344,-70.54053 c 10.5176,-6.50025 12.3215,-22.8929 3.5085,-31.88389 -12.5882,-12.84248 -34.0741,-3.47888 -34.0741,14.84958 0,15.37874 17.481,25.12099 30.5656,17.03431 z m 777.5096,0.4675 c 10.472,-5.27637 14.0896,-19.53522 7.4873,-29.51187 -10.794,-16.31085 -37.6335,-8.45202 -37.5405,10.99218 0.072,15.05543 16.6514,25.27221 30.0532,18.51969 z m -48.9985,-216.62602 c 15.9634,-9.35518 9.9757,-35.054 -8.5248,-36.58821 -9.8748,-0.81889 -16.378,2.88399 -20.1855,11.49344 -8.4294,19.06049 10.61,35.70226 28.7103,25.09477 z m -645.0767,0.84511 c 19.3453,-9.87727 9.6323,-39.8945 -12.0771,-37.32334 -22.0609,2.61279 -24.2441,31.74973 -2.9229,39.0087 3.7489,1.27635 10.7371,0.49117 15,-1.68536 z m 188.7234,-92.27068 c 13.8333,-7.95436 12.0515,-29.55756 -2.9549,-35.82765 -19.2128,-8.02763 -36.5333,17.77411 -21.8667,32.57405 6.8636,6.92594 16.287,8.16115 24.8216,3.2536 z m 232.6843,-30.98025 c 17.638,-11.15863 10.7985,-37.28896 -9.8247,-37.53529 -19.2216,-0.22959 -27.6716,25.53923 -11.9597,36.47187 7.3505,5.11468 14.8055,5.4786 21.7844,1.06342 z"
       id="path1" />
    <path
       style="fill:#800080"
       d="m 1607.3118,1253.8533 c -12.8349,-14.5727 -12.0507,-13.6626 -27.301,-31.6866 -19.163,-22.6483 -21.681,-25.5905 -25.7175,-30.0496 -2.0462,-2.2604 -6.0962,-7.0485 -9,-10.6402 -2.9038,-3.5917 -10.2296,-12.1472 -16.2796,-19.0121 -6.05,-6.865 -15.5875,-17.8405 -21.1944,-24.39 -5.6069,-6.5495 -11.233,-13.0331 -12.5024,-14.4081 -1.2694,-1.375 -3.5941,-4.075 -5.166,-6 -1.5718,-1.925 -4.7328,-5.525 -7.0242,-8 -2.2915,-2.475 -5.896,-6.6375 -8.0101,-9.25 l -3.8438,-4.75 h -91.9453 c -54.2168,0 -92.6364,-0.3783 -93.6295,-0.9219 -0.9264,-0.507 -21.0343,-20.3168 -44.6843,-44.0217 l -43,-43.0998 -0.5,-28.72825 -0.5,-28.72838 -91.1222,-0.25524 -91.1221,-0.25524 -47.43833,-47.24476 c -26.091,-25.98462 -48.3052,-48.29801 -49.3647,-49.58531 -1.865,-2.26579 -1.9325,-5.03859 -2.1131,-86.81999 l -0.1866,-84.47946 8.7504,-10.18 c 4.8127,-5.599 14.2918,-16.255 21.0646,-23.68 6.7729,-7.425 13.4438,-14.90674 14.8244,-16.62608 l 2.51,-3.12607 -0.1614,-51.0648 -0.1613,-51.0648 18.1164,-19.80913 c 9.964,-10.89502 28.08103,-30.83081 40.26013,-44.30176 12.1791,-13.47095 27.5516,-30.34595 34.1612,-37.5 13.408,-14.51256 30.1087,-32.90736 60.3183,-66.43686 11.1846,-12.41378 21.0433,-22.9702 21.9082,-23.45871 0.8648,-0.48852 16.0138,-1.10335 33.6643,-1.36629 17.6505,-0.26295 32.6461,-0.77654 33.3235,-1.14132 0.6775,-0.36478 8.0731,-7.84995 16.4346,-16.63371 8.3616,-8.78376 23.4901,-24.63297 33.619,-35.22047 l 18.416,-19.25 h 72.1148 72.1148 l 33.1645,33.11014 c 18.2405,18.21057 33.331,32.6219 33.5346,32.02516 0.2035,-0.59674 14.7424,-15.4963 32.3087,-33.11014 l 31.9387,-32.02516 71.5613,0.0147 c 54.9157,0.0113 72.0735,0.30207 73.7632,1.25 1.211,0.67939 11.5566,11.36026 22.9903,23.73526 11.4336,12.375 26.1928,28.02962 32.7981,34.78804 l 12.0097,12.28804 32.6672,0.003 c 37.9208,0.003 32.9792,-1.42611 46.1551,13.35207 29.9973,33.64508 105.5949,117.20261 145.1239,160.4044 l 16.7767,18.33547 -0.1245,50.75729 -0.1245,50.75728 3.263,4.01493 c 3.036,3.73547 25.4098,29.36429 38.7157,44.34812 l 5.8152,6.54858 0.01,84.43249 0.01,84.43249 -8.1438,8.3729 c -4.479,4.6051 -26.0114,26.43862 -47.8497,48.51894 l -39.7061,40.14603 -0.044,40.00515 -0.044,40.00515 -55.6812,55.7449 -55.6812,55.7449 -8.5688,0.098 c -4.7128,0.054 -32.8688,0.1665 -62.5688,0.25 l -54,0.1519 -0.035,61.6386 c -0.028,49.8945 -0.2895,61.945 -1.3701,63.2471 -1.1943,1.4391 -6.4282,1.6023 -49.6693,1.5481 l -48.3344,-0.06 z m 62.6524,-82.6823 -0.05,-46.4944 -26.9504,-30.7269 c -23.5104,-26.8046 -36.3695,-41.2964 -50.3859,-56.783 -1.9911,-2.2 -6.4202,-7.2741 -9.8424,-11.2757 l -6.2222,-7.2757 v -35.41525 c 0,-22.2282 -0.3676,-35.64256 -0.9873,-36.02554 -1.0039,-0.62044 -68.116,-0.73789 -68.7336,-0.12029 -0.1855,0.18549 -0.3257,26.76723 -0.3117,59.07048 l 0.026,58.7332 3.2535,3.7923 c 16.5768,19.3224 41.7499,48.4505 53.2203,61.5818 7.7183,8.836 17.6332,20.2643 22.0332,25.3963 4.4,5.132 11.825,13.6749 16.5,18.9843 15.1571,17.214 30.4332,35.1764 33.3048,39.1616 l 2.8048,3.8925 16.1952,-6e-4 16.1952,-6e-4 z m 194.2511,-121.2543 42.1616,-41.75 -0.267,-31.64035 -0.2671,-31.64041 -25.6645,-25.27126 c -14.1155,-13.89919 -25.6646,-25.75591 -25.6646,-26.34826 0,-1.36878 31.1278,-32.59975 32.492,-32.59975 0.5585,0 10.6053,9.64515 22.3261,21.43368 l 21.3106,21.43368 17.33,-17.68368 c 9.5314,-9.72603 25.7216,-26.00526 35.9782,-36.17608 l 18.6482,-18.4924 -0.1766,-65.63668 -0.1765,-65.63668 -12.4479,-14.37092 c -6.8463,-7.90401 -14.6401,-17.10458 -17.3195,-20.44571 l -4.8718,-6.07479 -7.2964,0.8376 c -4.013,0.46068 -17.4214,2.23661 -29.7964,3.94653 -32.645,4.51072 -43.4005,5.70481 -44.2747,4.91548 -0.4261,-0.38471 -2.0291,-10.72649 -3.5623,-22.98171 l -2.7876,-22.28224 2.0623,-0.86493 c 1.9145,-0.80295 27.1487,-4.40347 48.0623,-6.85773 4.95,-0.58089 12.4875,-1.58888 16.75,-2.23997 l 7.75,-1.18381 -0.01,-33.56982 c -0.01,-39.15475 1.9086,-32.85653 -15.9934,-52.56526 -6.875,-7.56885 -17.45,-19.27097 -23.5,-26.00472 -6.05,-6.73375 -16.4,-18.20513 -23,-25.49196 -6.6,-7.28682 -14.7,-16.29127 -18,-20.00988 -8.5779,-9.66604 -32.6613,-36.21862 -34.4721,-38.00648 -1.884,-1.86007 -8.9934,-9.69138 -19.5279,-21.51087 -4.4,-4.9367 -9.2029,-10.21441 -10.6731,-11.72824 l -2.673,-2.75241 h -23.4662 c -26.6757,0 -23.7131,-0.90512 -32.732,10 -2.9566,3.575 -7.1937,8.54493 -9.4157,11.04429 -5.5875,6.28492 -9.2135,10.50537 -15.0155,17.47712 -2.7365,3.28822 -6.8768,7.9966 -9.2005,10.46306 l -4.2251,4.48447 -2.7994,-2.56647 c -1.5397,-1.41156 -9.212,-8.30619 -17.0495,-15.3214 -7.8375,-7.01521 -14.25,-13.12383 -14.25,-13.57473 0,-0.45089 3.4875,-4.80335 7.75,-9.67214 24.3511,-27.81467 31.4237,-36.34664 31.0264,-37.42812 -0.3026,-0.82373 -24.4745,-26.51536 -37.3102,-39.65608 l -8.0586,-8.25 h -51.9599 -51.96 l -30.4938,30.50517 -30.4939,30.50518 -0.5,40.24482 c -0.275,22.13466 -0.3811,69.60733 -0.2358,105.49483 l 0.2643,65.25 h 35.4857 35.4858 V 525.8088 471.95094 l -5.9156,-3.65129 c -26.3743,-16.2792 -31.8804,-54.19717 -11.1603,-76.85692 36.9266,-40.38338 102.088,-6.08331 88.4893,46.57959 -3.0642,11.86668 -15.4831,27.68179 -25.1528,32.03152 l -4.1954,1.88716 -0.048,53.84437 -0.048,53.84436 23.2656,0.26847 23.2655,0.26847 0.016,30.68318 c 0.01,16.87575 0.3448,31.01142 0.746,31.41261 0.4012,0.40119 26.9437,0.78381 58.9835,0.85026 l 58.254,0.12081 8.25,-8.27909 8.25,-8.27909 v -15.98402 -15.98401 l -4.25,-2.16403 c -18.4872,-9.41335 -30.3311,-35.42957 -25.2284,-55.41652 13.4055,-52.50857 85.6495,-54.10145 101.149,-2.23019 6.4466,21.57457 -5.8617,48.12925 -27.4206,59.15875 l -3.25,1.6627 v 23.65433 23.65433 l -20.7566,20.81999 -20.7565,20.81999 h -67.2131 -67.213 l 0.07,29 0.07,29 78.6494,-0.008 78.6493,-0.008 2.2989,-4.0254 c 26.3674,-46.16939 98.3147,-28.94881 98.1863,23.50091 -0.1298,53.06138 -66.168,72.27412 -95.6665,27.83264 l -3.5132,-5.29274 h -79.3626 -79.3627 l 0.088,28.5131 c 0.087,28.20132 0.1112,28.51854 2.2099,29.01077 1.1671,0.27371 19.079,0.3244 39.8042,0.11263 20.7253,-0.21176 38.8938,-0.15346 40.3743,0.12957 1.7801,0.34028 9.4058,7.09804 22.5109,19.94866 l 19.8189,19.43405 0.083,28.0633 c 0.093,31.38964 -0.2941,29.07141 5.3291,31.94013 37.7881,19.27806 31.661,81.65671 -9.2984,94.66431 -57.8085,18.3584 -94.4745,-61.62545 -42.8558,-93.4864 l 5.9063,-3.64556 -0.081,-20.59228 -0.081,-20.59228 -7.5957,-7.26295 -7.5957,-7.26295 -34.0991,0.26295 -34.099,0.26295 -0.2507,30.34658 c -0.1378,16.69061 -0.5121,30.76959 -0.8316,31.28662 -0.3383,0.5473 -9.5802,0.87766 -22.1207,0.79072 -17.2163,-0.11935 -21.7129,0.12419 -22.403,1.21338 -0.4749,0.74948 -0.8703,12.55817 -0.8787,26.24157 l -0.015,24.87875 3.6451,4.1212 c 2.0047,2.2666 6.6321,7.2712 10.283,11.1212 3.651,3.85 12.2482,13.2932 19.105,20.985 6.8568,7.6917 18.7669,20.9696 26.4669,29.5064 7.7,8.5367 16.1922,18.106 18.8715,21.2649 l 4.8715,5.7437 h 59.6485 59.6485 z m -405.2016,-52.4994 v -50.74926 l -79.191,-6.9e-4 c -53.4768,-4.6e-4 -79.3986,-0.33661 -79.8303,-1.03521 -0.3517,-0.569 -0.6009,-16.769 -0.5539,-36 0.047,-19.23101 -0.2543,-34.97822 -0.6696,-34.99379 -0.4154,-0.0156 -12.7927,12.23802 -27.5052,27.23021 l -26.75,27.25852 v 29.40163 29.40164 l 30.75,30.37015 30.75,30.3702 76.5,-0.252 76.5,-0.252 z m 323.3123,5.9923 c 11.9089,-7.88102 10.2929,-27.87695 -2.7876,-34.49285 -19.2612,-9.74214 -38.5743,13.1257 -25.9996,30.78515 5.2775,7.4116 20.2719,9.3428 28.7872,3.7077 z m -529.4978,-148.4264 46.6855,-46.68346 V 796.4832 784.66667 l -14.75,-0.10929 c -8.1125,-0.0601 -18.125,-0.0946 -22.25,-0.0766 -4.125,0.018 -33.1826,0.0672 -64.5724,0.10929 l -57.0723,0.0766 -2.6777,4.08974 c -1.4727,2.24936 -2.6776,4.43086 -2.6776,4.84778 0,0.41692 -2.5875,3.20823 -5.75,6.20291 -43.1285,40.83992 -108.7255,-8.00652 -81.4353,-60.64043 18.1283,-34.96378 67.2347,-36.69102 89.0981,-3.13389 l 4.3221,6.63389 h 78.9076 78.9076 l -0.08,-29 -0.081,-29 h -41.0197 -41.0198 l -29.9248,-30.05896 -29.9248,-30.05896 v -14.69104 -14.69104 l -5.4258,-2.83498 c -44.2267,-23.10853 -27.5791,-92.75077 22.816,-95.44719 52.7739,-2.8237 74.9279,65.89956 30.3645,94.19293 l -5.75,3.65069 0.1036,7.71928 0.1037,7.71927 17.1463,16.59135 17.1465,16.59136 32.5,-0.0914 32.5,-0.0914 0.264,-31.73126 0.2641,-31.73127 22.7359,-0.26873 22.736,-0.26874 0.068,-37.82246 0.068,-37.82246 -4.048,-2.06512 c -35.4278,-18.07394 -34.8853,-71.90084 0.9117,-90.45291 58.7859,-30.4662 105.7408,54.65972 49.673,90.05372 l -4.173,2.63432 v 37.97687 37.97687 l 34.5707,-0.22408 c 19.0139,-0.12324 35.0708,-0.53316 35.682,-0.91094 0.8033,-0.49644 1.1208,-29.5469 1.1455,-104.7931 l 0.034,-104.10626 -30.9602,-30.97223 -30.9601,-30.97222 h -52.11 -52.11 l -2.3961,2.29111 c -2.4947,2.38552 -30.0033,31.41918 -38.195,40.31259 -5.8333,6.33303 -6.1335,4.86601 3.2154,15.71213 24.6452,28.59184 31.0836,36.22159 31.0836,36.83523 0,1.35116 -7.7502,8.73012 -20.7519,19.75785 l -13.252,11.23995 -2.395,-2.82443 c -3.7055,-4.36988 -6.4332,-7.46916 -10.4292,-11.84994 -2.0195,-2.21404 -5.6876,-6.48904 -8.1512,-9.5 -2.4636,-3.01097 -9.1351,-10.76199 -14.8256,-17.22449 l -10.3462,-11.75 h -24.3356 -24.3356 l -2.7214,3.25 c -6.7509,8.0621 -20.1202,23.11614 -34.949,39.35304 -4.2065,4.60599 -21.1337,23.09793 -26.0073,28.41158 -3.3,3.59789 -13.2,14.62291 -22,24.50004 -8.8,9.87713 -18.5034,20.66447 -21.563,23.97188 -3.0597,3.3074 -9.316,10.28846 -13.9031,15.51346 -4.587,5.225 -10.4156,11.75 -12.9525,14.5 -2.5369,2.75 -6.5181,7.20085 -8.847,9.89079 l -4.2344,4.89079 v 33.30019 c 0,22.13924 0.3512,33.51729 1.048,33.94792 0.5764,0.35626 16.7024,2.78547 35.8354,5.39826 19.133,2.61279 35.3114,5.07443 35.9519,5.47031 1.5283,0.94452 1.4628,5.97116 -0.2292,17.60174 -0.7602,5.225 -1.9456,13.92629 -2.6342,19.33619 l -1.2521,9.8362 -4.9438,-0.60214 c -2.7191,-0.33118 -7.9436,-1.051 -11.6099,-1.5996 -3.6664,-0.5486 -13.1911,-1.87057 -21.1661,-2.9377 -24.0579,-3.21917 -37.337,-5.03596 -40.5,-5.54103 -2.56903,-0.41021 -3.38723,0.0588 -5.69473,3.26452 -1.482,2.05896 -6.1411,7.56856 -10.3536,12.24356 -4.2125,4.675 -10.7749,12.16984 -14.5831,16.65519 l -6.9241,8.1552 0.041,66.20786 0.041,66.20787 34.7365,34.87061 34.73663,34.87061 86.5644,0.0163 86.5645,0.0163 z m 187.2629,-38.85665 c 28.5574,-28.89707 52.0372,-52.67416 52.1772,-52.83797 0.5938,-0.69455 -103.87,-105.62191 -105.1552,-105.62191 -0.5296,0 -6.7992,5.88165 -13.9323,13.07034 l -12.9694,13.07034 38.9012,38.94282 c 21.3956,21.41854 39.0665,39.43304 39.2686,40.0322 0.2022,0.59916 -17.0647,18.54277 -38.3707,39.87468 -21.306,21.33191 -38.5714,39.27072 -38.3675,39.86402 0.4846,1.41015 24.9204,26.1456 25.8289,26.1456 0.3831,0 24.0617,-23.64306 52.6192,-52.54012 z m 164.4226,35.04012 v -16.5 h -57.5 -57.5 v 16.5 16.5 h 57.5 57.5 z m -500.4344,-70.54053 c 10.5176,-6.50025 12.3215,-22.8929 3.5085,-31.88389 -12.5882,-12.84248 -34.0741,-3.47888 -34.0741,14.84958 0,15.37874 17.481,25.12099 30.5656,17.03431 z m 777.5096,0.4675 c 10.472,-5.27637 14.0896,-19.53522 7.4873,-29.51187 -10.794,-16.31085 -37.6335,-8.45202 -37.5405,10.99218 0.072,15.05543 16.6514,25.27221 30.0532,18.51969 z m -48.9985,-216.62602 c 15.9634,-9.35518 9.9757,-35.054 -8.5248,-36.58821 -9.8748,-0.81889 -16.378,2.88399 -20.1855,11.49344 -8.4294,19.06049 10.61,35.70226 28.7103,25.09477 z m -645.0767,0.84511 c 19.3453,-9.87727 9.6323,-39.8945 -12.0771,-37.32334 -22.0609,2.61279 -24.2441,31.74973 -2.9229,39.0087 3.7489,1.27635 10.7371,0.49117 15,-1.68536 z m 188.7234,-92.27068 c 13.8333,-7.95436 12.0515,-29.55756 -2.9549,-35.82765 -19.2128,-8.02763 -36.5333,17.77411 -21.8667,32.57405 6.8636,6.92594 16.287,8.16115 24.8216,3.2536 z m 232.6843,-30.98025 c 17.638,-11.15863 10.7985,-37.28896 -9.8247,-37.53529 -19.2216,-0.22959 -27.6716,25.53923 -11.9597,36.47187 7.3505,5.11468 14.8055,5.4786 21.7844,1.06342 z"
       id="path1-7" />
    <path
       style="fill:#aa4400"
       d="m 1625.3118,1257.1866 c -12.8349,-14.5727 -12.0507,-13.6626 -27.301,-31.6866 -19.163,-22.6483 -21.681,-25.5905 -25.7175,-30.0496 -2.0462,-2.2604 -6.0962,-7.0485 -9,-10.6402 -2.9038,-3.5917 -10.2296,-12.1472 -16.2796,-19.0121 -6.05,-6.865 -15.5875,-17.8405 -21.1944,-24.39 -5.6069,-6.5495 -11.233,-13.0331 -12.5024,-14.4081 -1.2694,-1.375 -3.5941,-4.075 -5.166,-6 -1.5718,-1.925 -4.7328,-5.525 -7.0242,-8 -2.2915,-2.475 -5.896,-6.6375 -8.0101,-9.25 l -3.8438,-4.75 h -91.9453 c -54.2168,0 -92.6364,-0.3783 -93.6295,-0.9219 -0.9264,-0.507 -21.0343,-20.3168 -44.6843,-44.0217 l -43,-43.0998 -0.5,-28.7282 -0.5,-28.7284 -91.1222,-0.2552 -91.1221,-0.2553 -47.43833,-47.2447 c -26.091,-25.9847 -48.3052,-48.2981 -49.3647,-49.5854 -1.865,-2.2657 -1.9325,-5.0385 -2.1131,-86.8199 l -0.1866,-84.4795 8.7504,-10.18 c 4.8127,-5.599 14.2918,-16.255 21.0646,-23.68 6.7729,-7.425 13.4438,-14.9067 14.8244,-16.6261 l 2.51,-3.1261 -0.1614,-51.0648 -0.1613,-51.0647 18.11643,-19.8092 c 9.964,-10.895 28.081,-30.8308 40.2601,-44.3017 12.1791,-13.471 27.5516,-30.346 34.1612,-37.5 13.408,-14.5126 30.1087,-32.9074 60.3183,-66.4369 11.1846,-12.4138 21.0433,-22.9702 21.9082,-23.4587 0.8648,-0.4885 16.0138,-1.1034 33.6643,-1.3663 17.6505,-0.2629 32.6461,-0.7765 33.3235,-1.1413 0.6775,-0.3648 8.0731,-7.85 16.4346,-16.6337 8.3616,-8.7838 23.4901,-24.633 33.619,-35.2205 L 1290.715,264 h 72.1148 72.1148 l 33.1645,33.1101 c 18.2405,18.2106 33.331,32.6219 33.5346,32.0252 0.2035,-0.5967 14.7424,-15.4963 32.3087,-33.1101 L 1565.8911,264 l 71.5613,0.015 c 54.9157,0.011 72.0735,0.3021 73.7632,1.25 1.211,0.6794 11.5566,11.3603 22.9903,23.7353 11.4336,12.375 26.1928,28.0296 32.7981,34.788 l 12.0097,12.288 h 32.6672 c 37.9208,0 32.9792,-1.4261 46.1551,13.3521 29.9973,33.6451 105.5949,117.2026 145.1239,160.4044 l 16.7767,18.3355 -0.1245,50.7573 -0.1245,50.7573 3.263,4.0149 c 3.036,3.7355 25.4098,29.3643 38.7157,44.3481 l 5.8152,6.5486 0.01,84.4325 0.01,84.4325 -8.1438,8.3729 c -4.479,4.6051 -26.0114,26.4386 -47.8497,48.5189 l -39.7061,40.146 -0.044,40.0052 -0.044,40.0051 -55.6812,55.7449 -55.6812,55.7449 -8.5688,0.098 c -4.7128,0.054 -32.8688,0.1665 -62.5688,0.25 l -54,0.1519 -0.035,61.6386 c -0.028,49.8945 -0.2895,61.945 -1.3701,63.2471 -1.1943,1.4391 -6.4282,1.6023 -49.6693,1.5481 l -48.3344,-0.06 z m 62.6524,-82.6823 -0.05,-46.4944 -26.9504,-30.7269 c -23.5104,-26.8046 -36.3695,-41.2964 -50.3859,-56.783 -1.9911,-2.2 -6.4202,-7.2741 -9.8424,-11.2757 l -6.2222,-7.2757 v -35.4152 c 0,-22.2282 -0.3676,-35.6426 -0.9873,-36.0256 -1.0039,-0.6204 -68.116,-0.7378 -68.7336,-0.1202 -0.1855,0.1854 -0.3257,26.7672 -0.3117,59.0704 l 0.026,58.7332 3.2535,3.7923 c 16.5768,19.3224 41.7499,48.4505 53.2203,61.5818 7.7183,8.836 17.6332,20.2643 22.0332,25.3963 4.4,5.132 11.825,13.6749 16.5,18.9843 15.1571,17.214 30.4332,35.1764 33.3048,39.1616 l 2.8048,3.8925 16.1952,-6e-4 16.1952,-6e-4 z m 194.2511,-121.2543 42.1616,-41.75 -0.267,-31.6403 -0.2671,-31.6404 -25.6645,-25.2713 c -14.1155,-13.8992 -25.6646,-25.7559 -25.6646,-26.3482 0,-1.3688 31.1278,-32.5998 32.492,-32.5998 0.5585,0 10.6053,9.6452 22.3261,21.4337 l 21.3106,21.4337 17.33,-17.6837 c 9.5314,-9.726 25.7216,-26.0053 35.9782,-36.1761 l 18.6482,-18.4924 -0.1766,-65.6367 -0.1765,-65.6367 -12.4479,-14.3709 c -6.8463,-7.904 -14.6401,-17.1046 -17.3195,-20.4457 l -4.8718,-6.0748 -7.2964,0.8376 c -4.013,0.4607 -17.4214,2.2366 -29.7964,3.9466 -32.645,4.5107 -43.4005,5.7048 -44.2747,4.9154 -0.4261,-0.3847 -2.0291,-10.7265 -3.5623,-22.9817 l -2.7876,-22.2822 2.0623,-0.8649 c 1.9145,-0.803 27.1487,-4.4035 48.0623,-6.8578 4.95,-0.5809 12.4875,-1.5889 16.75,-2.2399 l 7.75,-1.1839 -0.01,-33.5698 c -0.01,-39.1547 1.9086,-32.8565 -15.9934,-52.5652 -6.875,-7.5689 -17.45,-19.271 -23.5,-26.0048 -6.05,-6.7337 -16.4,-18.2051 -23,-25.4919 -6.6,-7.2868 -14.7,-16.2913 -18,-20.0099 -8.5779,-9.666 -32.6613,-36.2186 -34.4721,-38.0065 -1.884,-1.86 -8.9934,-9.6914 -19.5279,-21.5108 -4.4,-4.9367 -9.2029,-10.2145 -10.6731,-11.7283 L 1824.6642,384 h -23.4662 c -26.6757,0 -23.7131,-0.9051 -32.732,10 -2.9566,3.575 -7.1937,8.5449 -9.4157,11.0443 -5.5875,6.2849 -9.2135,10.5054 -15.0155,17.4771 -2.7365,3.2882 -6.8768,7.9966 -9.2005,10.4631 l -4.2251,4.4844 -2.7994,-2.5664 c -1.5397,-1.4116 -9.212,-8.3062 -17.0495,-15.3214 -7.8375,-7.0152 -14.25,-13.1239 -14.25,-13.5748 0,-0.4508 3.4875,-4.8033 7.75,-9.6721 24.3511,-27.8147 31.4237,-36.3466 31.0264,-37.4281 -0.3026,-0.8237 -24.4745,-26.5154 -37.3102,-39.6561 l -8.0586,-8.25 h -51.9599 -51.96 l -30.4938,30.5052 -30.4939,30.5052 -0.5,40.2448 c -0.275,22.1346 -0.3811,69.6073 -0.2358,105.4948 l 0.2643,65.25 h 35.4857 35.4858 v -53.8579 -53.8578 l -5.9156,-3.6513 c -26.3743,-16.2792 -31.8804,-54.1972 -11.1603,-76.8569 36.9266,-40.3834 102.088,-6.0833 88.4893,46.5796 -3.0642,11.8666 -15.4831,27.6817 -25.1528,32.0315 l -4.1954,1.8871 -0.048,53.8444 -0.048,53.8444 23.2656,0.2684 23.2655,0.2685 0.016,30.6832 c 0.01,16.8757 0.3448,31.0114 0.746,31.4126 0.4012,0.4012 26.9437,0.7838 58.9835,0.8503 l 58.254,0.1208 8.25,-8.2791 8.25,-8.2791 v -15.984 -15.984 l -4.25,-2.1641 c -18.4872,-9.4133 -30.3311,-35.4295 -25.2284,-55.4165 13.4055,-52.5086 85.6495,-54.1014 101.149,-2.2302 6.4466,21.5746 -5.8617,48.1293 -27.4206,59.1588 l -3.25,1.6627 v 23.6543 23.6543 l -20.7566,20.82 -20.7565,20.82 h -67.2131 -67.213 l 0.07,29 0.07,29 78.6494,-0.01 78.6493,-0.01 2.2989,-4.0254 c 26.3674,-46.1694 98.3147,-28.9488 98.1863,23.5009 -0.1298,53.0614 -66.168,72.2741 -95.6665,27.8326 l -3.5132,-5.2927 h -79.3626 -79.3627 l 0.088,28.5131 c 0.087,28.2013 0.1112,28.5185 2.2099,29.0108 1.1671,0.2737 19.079,0.3244 39.8042,0.1126 20.7253,-0.2118 38.8938,-0.1535 40.3743,0.1296 1.7801,0.3403 9.4058,7.098 22.5109,19.9486 l 19.8189,19.4341 0.083,28.0633 c 0.093,31.3896 -0.2941,29.0714 5.3291,31.9401 37.7881,19.2781 31.661,81.6567 -9.2984,94.6643 -57.8085,18.3584 -94.4745,-61.6254 -42.8558,-93.4864 l 5.9063,-3.6455 -0.081,-20.5923 -0.081,-20.5923 -7.5957,-7.2629 -7.5957,-7.263 -34.0991,0.263 -34.099,0.2629 -0.2507,30.3466 c -0.1378,16.6906 -0.5121,30.7696 -0.8316,31.2866 -0.3383,0.5473 -9.5802,0.8777 -22.1207,0.7907 -17.2163,-0.1193 -21.7129,0.1242 -22.403,1.2134 -0.4749,0.7495 -0.8703,12.5582 -0.8787,26.2416 l -0.015,24.8787 3.6451,4.1212 c 2.0047,2.2666 6.6321,7.2712 10.283,11.1212 3.651,3.85 12.2482,13.2932 19.105,20.985 6.8568,7.6917 18.7669,20.9696 26.4669,29.5064 7.7,8.5367 16.1922,18.106 18.8715,21.2649 l 4.8715,5.7437 h 59.6485 59.6485 z m -405.2016,-52.4994 v -50.7492 l -79.191,-7e-4 c -53.4768,-5e-4 -79.3986,-0.3366 -79.8303,-1.0352 -0.3517,-0.569 -0.6009,-16.769 -0.5539,-36 0.047,-19.231 -0.2543,-34.9782 -0.6696,-34.9938 -0.4154,-0.016 -12.7927,12.238 -27.5052,27.2302 l -26.75,27.2585 v 29.4016 29.4017 l 30.75,30.3701 30.75,30.3702 76.5,-0.252 76.5,-0.252 z m 323.3123,5.9923 c 11.9089,-7.881 10.2929,-27.8769 -2.7876,-34.4928 -19.2612,-9.7422 -38.5743,13.1257 -25.9996,30.7851 5.2775,7.4116 20.2719,9.3428 28.7872,3.7077 z m -529.4978,-148.4264 46.6855,-46.6834 V 799.8165 788 l -14.75,-0.1093 c -8.1125,-0.06 -18.125,-0.095 -22.25,-0.077 -4.125,0.018 -33.1826,0.067 -64.5724,0.1093 l -57.0723,0.077 -2.6777,4.0897 c -1.4727,2.2494 -2.6776,4.4309 -2.6776,4.8478 0,0.4169 -2.5875,3.2083 -5.75,6.2029 -43.1285,40.84 -108.7255,-8.0065 -81.4353,-60.6404 18.1283,-34.9638 67.2347,-36.691 89.0981,-3.1339 l 4.3221,6.6339 h 78.9076 78.9076 l -0.08,-29 -0.081,-29 h -41.0197 -41.0198 l -29.9248,-30.059 -29.9248,-30.0589 V 613.191 598.5 l -5.4258,-2.835 c -44.2267,-23.1085 -27.5791,-92.7507 22.816,-95.4472 52.7739,-2.8237 74.9279,65.8996 30.3645,94.193 l -5.75,3.6507 0.1036,7.7192 0.1037,7.7193 17.1463,16.5914 17.1465,16.5913 32.5,-0.091 32.5,-0.091 0.264,-31.7312 0.2641,-31.7313 22.7359,-0.2687 22.736,-0.2688 0.068,-37.8224 0.068,-37.8225 -4.048,-2.0651 c -35.4278,-18.074 -34.8853,-71.9009 0.9117,-90.4529 58.7859,-30.4662 105.7408,54.6597 49.673,90.0537 l -4.173,2.6343 v 37.9769 37.9768 l 34.5707,-0.224 c 19.0139,-0.1233 35.0708,-0.5332 35.682,-0.911 0.8033,-0.4964 1.1208,-29.5469 1.1455,-104.7931 l 0.034,-104.1062 -30.9602,-30.9723 -30.9601,-30.9722 h -52.11 -52.11 l -2.3961,2.2911 c -2.4947,2.3855 -30.0033,31.4192 -38.195,40.3126 -5.8333,6.333 -6.1335,4.866 3.2154,15.7121 24.6452,28.5919 31.0836,36.2216 31.0836,36.8353 0,1.3511 -7.7502,8.7301 -20.7519,19.7578 l -13.252,11.24 -2.395,-2.8245 c -3.7055,-4.3698 -6.4332,-7.4691 -10.4292,-11.8499 -2.0195,-2.214 -5.6876,-6.489 -8.1512,-9.5 -2.4636,-3.011 -9.1351,-10.762 -14.8256,-17.2245 l -10.3462,-11.75 h -24.3356 -24.3356 l -2.7214,3.25 c -6.7509,8.0621 -20.1202,23.1162 -34.949,39.3531 -4.2065,4.6059 -21.1337,23.0979 -26.0073,28.4115 -3.3,3.5979 -13.2,14.6229 -22,24.5001 -8.8,9.8771 -18.5034,20.6644 -21.563,23.9719 -3.0597,3.3074 -9.316,10.2884 -13.9031,15.5134 -4.587,5.225 -10.4156,11.75 -12.9525,14.5 -2.5369,2.75 -6.5181,7.2009 -8.847,9.8908 l -4.2344,4.8908 v 33.3002 c 0,22.1392 0.3512,33.5173 1.048,33.9479 0.5764,0.3563 16.7024,2.7855 35.8354,5.3983 19.133,2.6128 35.3114,5.0744 35.9519,5.4703 1.5283,0.9445 1.4628,5.9711 -0.2292,17.6017 -0.7602,5.225 -1.9456,13.9263 -2.6342,19.3362 l -1.2521,9.8362 -4.9438,-0.6021 c -2.7191,-0.3312 -7.9436,-1.051 -11.6099,-1.5996 -3.6664,-0.5486 -13.1911,-1.8706 -21.1661,-2.9377 -24.0579,-3.2192 -37.337,-5.036 -40.5,-5.5411 -2.569,-0.4102 -3.3872,0.059 -5.6947,3.2646 -1.482,2.0589 -6.1411,7.5685 -10.3536,12.2435 -4.2125,4.675 -10.7749,12.1699 -14.58313,16.6552 l -6.9241,8.1552 0.041,66.2079 0.041,66.2078 34.73653,34.8706 34.7366,34.8707 86.5644,0.016 86.5645,0.016 z m 187.2629,-38.8566 c 28.5574,-28.8971 52.0372,-52.6742 52.1772,-52.838 C 1510.8621,765.9274 1406.3983,661 1405.1131,661 c -0.5296,0 -6.7992,5.8817 -13.9323,13.0703 l -12.9694,13.0704 38.9012,38.9428 c 21.3956,21.4185 39.0665,39.433 39.2686,40.0322 0.2022,0.5992 -17.0647,18.5428 -38.3707,39.8747 -21.306,21.3319 -38.5714,39.2707 -38.3675,39.864 0.4846,1.4101 24.9204,26.1456 25.8289,26.1456 0.3831,0 24.0617,-23.6431 52.6192,-52.5401 z M 1622.5137,854.5 V 838 h -57.5 -57.5 v 16.5 16.5 h 57.5 57.5 z m -500.4344,-70.5405 c 10.5176,-6.5003 12.3215,-22.8929 3.5085,-31.8839 -12.5882,-12.8425 -34.0741,-3.4789 -34.0741,14.8496 0,15.3787 17.481,25.121 30.5656,17.0343 z m 777.5096,0.4675 c 10.472,-5.2764 14.0896,-19.5352 7.4873,-29.5119 -10.794,-16.3109 -37.6335,-8.452 -37.5405,10.9922 0.072,15.0554 16.6514,25.2722 30.0532,18.5197 z m -48.9985,-216.6261 c 15.9634,-9.3551 9.9757,-35.0539 -8.5248,-36.5882 -9.8748,-0.8188 -16.378,2.884 -20.1855,11.4935 -8.4294,19.0605 10.61,35.7022 28.7103,25.0947 z m -645.0767,0.8452 c 19.3453,-9.8773 9.6323,-39.8945 -12.0771,-37.3234 -22.0609,2.6128 -24.2441,31.7497 -2.9229,39.0087 3.7489,1.2764 10.7371,0.4912 15,-1.6853 z m 188.7234,-92.2707 c 13.8333,-7.9544 12.0515,-29.5576 -2.9549,-35.8277 -19.2128,-8.0276 -36.5333,17.7741 -21.8667,32.5741 6.8636,6.9259 16.287,8.1611 24.8216,3.2536 z m 232.6843,-30.9803 c 17.638,-11.1586 10.7985,-37.2889 -9.8247,-37.5353 -19.2216,-0.2295 -27.6716,25.5393 -11.9597,36.4719 7.3505,5.1147 14.8055,5.4786 21.7844,1.0634 z"
       id="path1-7-8" />
    <path
       style="opacity:0.825;mix-blend-mode:overlay;fill:#aa4400;fill-opacity:0.258675;paint-order:stroke markers fill"
       id="rect2"
       width="1591.667"
       height="1175"
       x="666.66669"
       y="175"
       inkscape:path-effect="#path-effect4"
       sodipodi:type="rect"
       d="m 1066.6667,175 h 790.8336 a 400.83334,400.83334 45 0 1 400.8334,400.83334 V 974.99997 A 375.00003,375.00003 135 0 1 1883.3336,1350 H 1084.1667 A 417.5,417.5 45 0 1 666.66669,932.5 V 575.00003 A 400.00003,400.00003 135 0 1 1066.6667,175 Z" />
  </g>
</svg>
